<svg height="512" viewBox="0 0 74 74" width="512" xmlns="http://www.w3.org/2000/svg"><g id="line_color" data-name="line color"><path d="m59.88 14.41a4.928 4.928 0 0 1 -.03.55 9.267 9.267 0 0 0 -3.94-.86 9.563 9.563 0 0 0 -7.74 3.95 6.913 6.913 0 0 0 -9.51 1.42h-2.36a4.922 4.922 0 0 1 -4.78-5.06 4.931 4.931 0 0 1 4.78-5.07c.07 0 .14.01.2.01a3.821 3.821 0 0 1 -.2-1.23 3.487 3.487 0 0 1 3.38-3.58 3.337 3.337 0 0 1 2.95 1.83 5.543 5.543 0 0 1 4.75-2.77 5.805 5.805 0 0 1 5.63 5.97 2.807 2.807 0 0 1 -.01.29 4.563 4.563 0 0 1 2.1-.52 4.931 4.931 0 0 1 4.78 5.07z" fill="#eeefee"/><path d="m38.66 19.97h-2.36a5.431 5.431 0 0 1 -5.28-5.56 5.468 5.468 0 0 1 4.842-5.551 4.4 4.4 0 0 1 -.062-.739 3.988 3.988 0 0 1 3.88-4.08 3.8 3.8 0 0 1 2.956 1.435 5.973 5.973 0 0 1 4.744-2.375 6.286 6.286 0 0 1 6.114 6.007 4.951 4.951 0 0 1 1.606-.267 5.437 5.437 0 0 1 5.28 5.57 5.437 5.437 0 0 1 -.033.6.5.5 0 0 1 -.708.4 8.748 8.748 0 0 0 -3.729-.81 9.108 9.108 0 0 0 -7.336 3.744.5.5 0 0 1 -.7.112 6.413 6.413 0 0 0 -8.823 1.319.5.5 0 0 1 -.391.195zm-2.3-10.126a4.443 4.443 0 0 0 -4.34 4.566 4.431 4.431 0 0 0 4.28 4.56h2.119a7.414 7.414 0 0 1 9.639-1.6 10.112 10.112 0 0 1 7.852-3.77 9.81 9.81 0 0 1 3.466.619 4.423 4.423 0 0 0 -4.276-4.379 4.051 4.051 0 0 0 -1.871.464.5.5 0 0 1 -.727-.493c.008-.083.007-.158.007-.242a5.314 5.314 0 0 0 -5.129-5.469 5.037 5.037 0 0 0 -4.321 2.527.5.5 0 0 1 -.872-.023 2.818 2.818 0 0 0 -2.507-1.564 2.989 2.989 0 0 0 -2.88 3.08 3.348 3.348 0 0 0 .173 1.068.5.5 0 0 1 -.473.662c-.015 0-.123-.008-.137-.006z" fill="#323c6b"/><path d="m55.1 9.34a4.563 4.563 0 0 0 -2.1.52 2.807 2.807 0 0 0 .01-.29 5.805 5.805 0 0 0 -5.63-5.97 5.54 5.54 0 0 0 -4.738 2.753 5.35 5.35 0 0 1 2.738-.753 5.805 5.805 0 0 1 5.63 5.97 2.807 2.807 0 0 1 -.01.29 4.563 4.563 0 0 1 2.1-.52 4.757 4.757 0 0 1 4.3 2.888 9.127 9.127 0 0 1 2.452.732 4.928 4.928 0 0 0 .03-.55 4.931 4.931 0 0 0 -4.782-5.07z" fill="#dbd8dd"/><path d="m48.161 18.045.009.005c.008-.011.018-.021.027-.033z" fill="#dbd8dd"/><path d="m59.35 14.97v-.01h1z" fill="#323c6b"/><path d="m29.3 31.49a6.474 6.474 0 0 0 .46 2.42 4.761 4.761 0 0 1 -1.36.2h-19.81a5.555 5.555 0 0 1 -.38-11.1 7.474 7.474 0 0 1 13.27-4.04 5.864 5.864 0 0 1 1.84-.3 5.776 5.776 0 0 1 5.79 5.77 4.909 4.909 0 0 1 3.02 1.67 6.5 6.5 0 0 0 -2.83 5.38z" fill="#eeefee"/><path d="m28.4 34.61h-19.81a6.054 6.054 0 0 1 -.834-12.055 7.977 7.977 0 0 1 13.9-4.159 6.4 6.4 0 0 1 1.668-.226 6.29 6.29 0 0 1 6.276 5.853 5.41 5.41 0 0 1 2.914 1.763.5.5 0 0 1 -.1.737 6.047 6.047 0 0 0 -2.188 7.2.5.5 0 0 1 -.323.665 5.222 5.222 0 0 1 -1.503.222zm-12.75-17.93a6.972 6.972 0 0 0 -6.941 6.369.5.5 0 0 1 -.464.46 5.055 5.055 0 0 0 .345 10.1h19.81a4.185 4.185 0 0 0 .7-.059 7.059 7.059 0 0 1 2.274-7.5 4.423 4.423 0 0 0 -2.341-1.114.5.5 0 0 1 -.426-.495 5.286 5.286 0 0 0 -5.29-5.27 5.388 5.388 0 0 0 -1.682.274.5.5 0 0 1 -.549-.162 6.925 6.925 0 0 0 -5.436-2.603z" fill="#323c6b"/><path d="m30.11 26.44a4.9 4.9 0 0 1 1.195.355 6.485 6.485 0 0 1 .825-.685 4.894 4.894 0 0 0 -2.322-1.5 5.744 5.744 0 0 1 .302 1.83z" fill="#dbd8dd"/><path d="m4 30.55a5.587 5.587 0 0 1 5.21-5.54 7.474 7.474 0 0 1 13.27-4.04 5.864 5.864 0 0 1 1.84-.3 5.78 5.78 0 0 1 4.58 2.247 5.78 5.78 0 0 0 -5.58-4.247 5.864 5.864 0 0 0 -1.84.3 7.474 7.474 0 0 0 -13.27 4.04 5.587 5.587 0 0 0 -5.21 5.54 5.508 5.508 0 0 0 1.192 3.421 5.509 5.509 0 0 1 -.192-1.421z" fill="#dbd8dd"/><path d="m29.77 34.41h-.01v-1z" fill="#323c6b"/><path d="m71 32.49a5.52 5.52 0 0 1 -5.52 5.53h-29.67a6.525 6.525 0 0 1 0-13.05 6.729 6.729 0 0 1 1.56.19 6.931 6.931 0 0 1 10.8-7.11 9.563 9.563 0 0 1 7.74-3.95 9.267 9.267 0 0 1 3.94.86 9.637 9.637 0 0 1 5.06 12.03 5.436 5.436 0 0 1 .57-.03 5.52 5.52 0 0 1 5.52 5.53z" fill="#eeefee"/><path d="m65.48 38.52h-29.67a7.024 7.024 0 1 1 .954-13.983 7.533 7.533 0 0 1 -.044-.827 7.427 7.427 0 0 1 11.338-6.336 10.112 10.112 0 0 1 7.852-3.774 9.743 9.743 0 0 1 4.151.907 10.137 10.137 0 0 1 5.539 11.954 6.03 6.03 0 0 1 -.12 12.059zm-29.67-13.05a6.025 6.025 0 0 0 0 12.05h29.67a5.029 5.029 0 1 0 -.516-10.033.5.5 0 0 1 -.524-.666 9.138 9.138 0 0 0 -4.8-11.406 8.756 8.756 0 0 0 -3.73-.815 9.108 9.108 0 0 0 -7.336 3.744.5.5 0 0 1 -.7.112 6.444 6.444 0 0 0 -10.02 6.6.5.5 0 0 1 -.606.59 6.2 6.2 0 0 0 -1.438-.176z" fill="#323c6b"/><path d="m65.48 26.96a5.436 5.436 0 0 0 -.57.03 9.637 9.637 0 0 0 -5.06-12.03 9.267 9.267 0 0 0 -3.94-.86 9.56 9.56 0 0 0 -7.71 3.917 9.5 9.5 0 0 1 5.71-1.917 9.267 9.267 0 0 1 3.94.86 9.637 9.637 0 0 1 5.06 12.03 5.436 5.436 0 0 1 .57-.03 5.527 5.527 0 0 1 4.768 8.311 5.53 5.53 0 0 0 -2.768-10.311z" fill="#dbd8dd"/><g fill="#323c6b"><path d="m65.48 38.52h-29.67a7.024 7.024 0 1 1 .954-13.983 7.533 7.533 0 0 1 -.044-.827 7.427 7.427 0 0 1 11.338-6.336 10.112 10.112 0 0 1 7.852-3.774 9.743 9.743 0 0 1 4.151.907 10.137 10.137 0 0 1 5.539 11.954 6.03 6.03 0 0 1 -.12 12.059zm-29.67-13.05a6.025 6.025 0 0 0 0 12.05h29.67a5.029 5.029 0 1 0 -.516-10.033.5.5 0 0 1 -.524-.666 9.138 9.138 0 0 0 -4.8-11.406 8.756 8.756 0 0 0 -3.73-.815 9.108 9.108 0 0 0 -7.336 3.744.5.5 0 0 1 -.7.112 6.444 6.444 0 0 0 -10.02 6.6.5.5 0 0 1 -.606.59 6.2 6.2 0 0 0 -1.438-.176z"/><path d="m28.4 34.61h-19.81a6.054 6.054 0 0 1 -.834-12.055 7.977 7.977 0 0 1 13.9-4.159 6.4 6.4 0 0 1 1.668-.226 6.29 6.29 0 0 1 6.276 5.853 5.41 5.41 0 0 1 2.914 1.763.5.5 0 0 1 -.1.737 6.047 6.047 0 0 0 -2.188 7.2.5.5 0 0 1 -.323.665 5.222 5.222 0 0 1 -1.503.222zm-12.75-17.93a6.972 6.972 0 0 0 -6.941 6.369.5.5 0 0 1 -.464.46 5.055 5.055 0 0 0 .345 10.1h19.81a4.185 4.185 0 0 0 .7-.059 7.059 7.059 0 0 1 2.274-7.5 4.423 4.423 0 0 0 -2.341-1.114.5.5 0 0 1 -.426-.495 5.286 5.286 0 0 0 -5.29-5.27 5.388 5.388 0 0 0 -1.682.274.5.5 0 0 1 -.549-.162 6.925 6.925 0 0 0 -5.436-2.603z"/><path d="m38.66 19.97h-2.36a5.431 5.431 0 0 1 -5.28-5.56 5.468 5.468 0 0 1 4.842-5.551 4.4 4.4 0 0 1 -.062-.739 3.988 3.988 0 0 1 3.88-4.08 3.8 3.8 0 0 1 2.956 1.435 5.973 5.973 0 0 1 4.744-2.375 6.286 6.286 0 0 1 6.114 6.007 4.951 4.951 0 0 1 1.606-.267 5.437 5.437 0 0 1 5.28 5.57 5.437 5.437 0 0 1 -.033.6.5.5 0 0 1 -.708.4 8.748 8.748 0 0 0 -3.729-.81 9.108 9.108 0 0 0 -7.336 3.744.5.5 0 0 1 -.7.112 6.413 6.413 0 0 0 -8.823 1.319.5.5 0 0 1 -.391.195zm-2.3-10.126a4.443 4.443 0 0 0 -4.34 4.566 4.431 4.431 0 0 0 4.28 4.56h2.119a7.414 7.414 0 0 1 9.639-1.6 10.112 10.112 0 0 1 7.852-3.77 9.81 9.81 0 0 1 3.466.619 4.423 4.423 0 0 0 -4.276-4.379 4.051 4.051 0 0 0 -1.871.464.5.5 0 0 1 -.727-.493c.008-.083.007-.158.007-.242a5.314 5.314 0 0 0 -5.129-5.469 5.037 5.037 0 0 0 -4.321 2.527.5.5 0 0 1 -.872-.023 2.818 2.818 0 0 0 -2.507-1.564 2.989 2.989 0 0 0 -2.88 3.08 3.348 3.348 0 0 0 .173 1.068.5.5 0 0 1 -.473.662c-.015 0-.123-.008-.137-.006z"/><path d="m10.389 50.144a.5.5 0 0 1 -.5-.5v-7.644a.5.5 0 0 1 1 0v7.641a.5.5 0 0 1 -.5.503z"/><path d="m7.17 48.38a.5.5 0 0 1 -.27-.921l6.439-4.113a.5.5 0 0 1 .538.843l-6.439 4.111a.5.5 0 0 1 -.268.08z"/><path d="m13.608 48.38a.5.5 0 0 1 -.269-.079l-6.439-4.113a.5.5 0 0 1 .538-.843l6.439 4.113a.5.5 0 0 1 -.27.921z"/><path d="m31.512 50.144a.5.5 0 0 1 -.5-.5v-7.644a.5.5 0 0 1 1 0v7.641a.5.5 0 0 1 -.5.503z"/><path d="m28.293 48.38a.5.5 0 0 1 -.27-.921l6.439-4.113a.5.5 0 0 1 .538.843l-6.438 4.111a.5.5 0 0 1 -.269.08z"/><path d="m34.731 48.38a.5.5 0 0 1 -.269-.079l-6.439-4.113a.5.5 0 1 1 .538-.843l6.439 4.113a.5.5 0 0 1 -.27.921z"/><path d="m52.636 50.144a.5.5 0 0 1 -.5-.5v-7.644a.5.5 0 0 1 1 0v7.641a.5.5 0 0 1 -.5.503z"/><path d="m49.417 48.38a.5.5 0 0 1 -.27-.921l6.439-4.113a.5.5 0 0 1 .538.843l-6.439 4.111a.5.5 0 0 1 -.268.08z"/><path d="m55.854 48.38a.5.5 0 0 1 -.269-.079l-6.439-4.113a.5.5 0 0 1 .538-.843l6.439 4.113a.5.5 0 0 1 -.27.921z"/><path d="m21.821 60.738a.5.5 0 0 1 -.5-.5v-7.638a.5.5 0 0 1 1 0v7.641a.5.5 0 0 1 -.5.497z"/><path d="m18.6 58.975a.5.5 0 0 1 -.27-.921l6.439-4.113a.5.5 0 1 1 .538.843l-6.436 4.116a.5.5 0 0 1 -.271.075z"/><path d="m25.041 58.975a.5.5 0 0 1 -.269-.079l-6.439-4.113a.5.5 0 1 1 .538-.843l6.439 4.113a.5.5 0 0 1 -.27.921z"/><path d="m42.945 60.738a.5.5 0 0 1 -.5-.5v-7.638a.5.5 0 0 1 1 0v7.641a.5.5 0 0 1 -.5.497z"/><path d="m39.726 58.975a.5.5 0 0 1 -.27-.921l6.444-4.114a.5.5 0 1 1 .538.843l-6.444 4.117a.5.5 0 0 1 -.268.075z"/><path d="m46.164 58.975a.5.5 0 0 1 -.264-.075l-6.439-4.113a.5.5 0 1 1 .538-.843l6.439 4.113a.5.5 0 0 1 -.27.921z"/><path d="m32.383 70.9a.5.5 0 0 1 -.5-.5v-7.636a.5.5 0 0 1 1 0v7.636a.5.5 0 0 1 -.5.5z"/><path d="m29.164 69.141a.5.5 0 0 1 -.27-.921l6.439-4.113a.5.5 0 1 1 .538.843l-6.439 4.113a.5.5 0 0 1 -.268.078z"/><path d="m35.6 69.141a.5.5 0 0 1 -.269-.079l-6.439-4.113a.5.5 0 1 1 .538-.843l6.439 4.113a.5.5 0 0 1 -.27.921z"/><path d="m53.506 70.9a.5.5 0 0 1 -.5-.5v-7.636a.5.5 0 0 1 1 0v7.636a.5.5 0 0 1 -.5.5z"/><path d="m50.288 69.141a.5.5 0 0 1 -.27-.921l6.439-4.113a.5.5 0 0 1 .538.843l-6.439 4.113a.5.5 0 0 1 -.268.078z"/><path d="m56.726 69.141a.5.5 0 0 1 -.269-.079l-6.439-4.113a.5.5 0 0 1 .538-.843l6.444 4.114a.5.5 0 0 1 -.27.921z"/><path d="m64.068 60.738a.5.5 0 0 1 -.5-.5v-7.638a.5.5 0 0 1 1 0v7.641a.5.5 0 0 1 -.5.497z"/><path d="m60.849 58.975a.5.5 0 0 1 -.27-.921l6.439-4.113a.5.5 0 1 1 .538.843l-6.438 4.116a.5.5 0 0 1 -.269.075z"/><path d="m67.287 58.975a.5.5 0 0 1 -.269-.079l-6.438-4.113a.5.5 0 1 1 .538-.843l6.439 4.113a.5.5 0 0 1 -.27.921z"/></g></g></svg>