<svg height="512" viewBox="0 0 74 74" width="512" xmlns="http://www.w3.org/2000/svg"><g id="line_color" data-name="line color"><g fill="#323c6b"><path d="m42.111 22.419a.5.5 0 0 1 -.494-.419l-.056-.385a.5.5 0 1 1 .991-.132l.053.362a.5.5 0 0 1 -.417.572.531.531 0 0 1 -.077.002z"/><path d="m41.916 19.4h-.016a.5.5 0 0 1 -.486-.513 16.8 16.8 0 0 1 1.553-6.654.5.5 0 1 1 .907.421 15.8 15.8 0 0 0 -1.46 6.26.5.5 0 0 1 -.498.486z"/><path d="m61.847 49.257a.5.5 0 0 1 -.236-.941l.338-.184a.5.5 0 0 1 .482.876l-.35.189a.5.5 0 0 1 -.234.06z"/><path d="m64.419 47.688a.5.5 0 0 1 -.285-.911 25.132 25.132 0 0 0 5.854-5.648.5.5 0 0 1 .8.6 26.137 26.137 0 0 1 -6.088 5.871.5.5 0 0 1 -.281.088z"/></g><path d="m47.9 48.663c.654.062 1.309.093 1.978.093a22.539 22.539 0 0 0 21.122-14.656 19.433 19.433 0 1 1 -24.472-30.176 22.553 22.553 0 0 0 -15.391 34.832s5.976 9.352 16.763 9.907z" fill="#eeefee"/><path d="m49.877 49.256c-.683 0-1.342-.031-2.015-.095-10.91-.567-17.085-10.042-17.146-10.137a23.053 23.053 0 0 1 15.738-35.594.5.5 0 0 1 .378.891 18.933 18.933 0 1 0 23.841 29.4.5.5 0 0 1 .8.553 23.137 23.137 0 0 1 -21.596 14.982zm-5.134-44.476a22.185 22.185 0 0 0 -16.907 21.436 21.959 21.959 0 0 0 3.716 12.261c.064.1 5.979 9.152 16.372 9.686h.021c.645.062 1.276.091 1.931.091a22.147 22.147 0 0 0 19.914-12.58 19.935 19.935 0 0 1 -25.047-30.894z" fill="#323c6b"/><path d="m46.528 3.924a22.359 22.359 0 0 0 -4.3 1.1 19.425 19.425 0 0 0 13.123 33.763c.532 0 1.058-.03 1.58-.072a19.42 19.42 0 0 1 -10.4-34.791z" fill="#dbd8dd"/><path d="m66.722 36.893a22.523 22.523 0 0 1 -18.206 11.8c.451.029.9.064 1.361.064a22.539 22.539 0 0 0 21.123-14.657 19.331 19.331 0 0 1 -4.278 2.793z" fill="#dbd8dd"/><g fill="#323c6b"><path d="m36.828 65.217a4.106 4.106 0 0 1 -4.1-4.1.5.5 0 0 1 1 0 3.1 3.1 0 1 0 3.1-3.1.5.5 0 0 1 0-1 4.1 4.1 0 1 1 0 8.2z"/><path d="m10.2 58.013h-1.985a.5.5 0 0 1 0-1h1.985a.5.5 0 0 1 0 1z"/><path d="m36.828 58.013h-22.089a.5.5 0 1 1 0-1h22.089a.5.5 0 0 1 0 1z"/><path d="m24.771 70.576a4.106 4.106 0 0 1 -4.1-4.1.5.5 0 0 1 1 0 3.1 3.1 0 1 0 3.1-3.1.5.5 0 1 1 0-1 4.1 4.1 0 1 1 0 8.2z"/><path d="m24.771 63.373h-21.771a.5.5 0 0 1 0-1h21.771a.5.5 0 0 1 0 1z"/><path d="m28.315 52.72h-22.134a.5.5 0 0 1 0-1h22.134a3.1 3.1 0 1 0 -3.1-3.1.5.5 0 0 1 -1 0 4.1 4.1 0 1 1 4.1 4.1z"/><path d="m49.877 49.256c-.683 0-1.342-.031-2.015-.095-10.91-.567-17.085-10.042-17.146-10.137a23.053 23.053 0 0 1 15.738-35.594.5.5 0 0 1 .378.891 18.933 18.933 0 1 0 23.841 29.4.5.5 0 0 1 .8.553 23.137 23.137 0 0 1 -21.596 14.982zm-5.134-44.476a22.185 22.185 0 0 0 -16.907 21.436 21.959 21.959 0 0 0 3.716 12.261c.064.1 5.979 9.152 16.372 9.686h.021c.645.062 1.276.091 1.931.091a22.147 22.147 0 0 0 19.914-12.58 19.935 19.935 0 0 1 -25.047-30.894z"/></g></g></svg>