<svg height="512" viewBox="0 0 74 74" width="512" xmlns="http://www.w3.org/2000/svg"><g id="line_color" data-name="line color"><g fill="#323c6b"><path d="m25.334 18.54a.493.493 0 0 1 -.229-.056.5.5 0 0 1 -.215-.673c1.8-3.487 3.739-7.1 5.771-10.749a.5.5 0 0 1 .874.486c-2.026 3.637-3.963 7.244-5.756 10.721a.5.5 0 0 1 -.445.271z"/><path d="m23.7 21.756a.5.5 0 0 1 -.447-.723l.388-.777a.5.5 0 0 1 .895.448l-.387.774a.5.5 0 0 1 -.449.278z"/><path d="m19.076 66.363a.5.5 0 0 1 -.376-.17 24.208 24.208 0 0 1 -4.886-8.615.5.5 0 1 1 .952-.306 23.219 23.219 0 0 0 4.686 8.262.5.5 0 0 1 -.376.83z"/><path d="m21.5 68.756a.5.5 0 0 1 -.325-.121c-.14-.119-.277-.24-.414-.362a.5.5 0 0 1 .667-.745q.2.176.4.349a.5.5 0 0 1 -.325.879z"/></g><path d="m57.842 50.158a20.842 20.842 0 0 1 -41.684 0c0-11.513 20.842-47.158 20.842-47.158s20.842 35.645 20.842 47.158z" fill="#b6d2dd"/><path d="m37 71.5a21.366 21.366 0 0 1 -21.342-21.342c0-11.516 20.056-45.95 20.91-47.411a.52.52 0 0 1 .863 0c.854 1.46 20.91 35.9 20.91 47.411a21.366 21.366 0 0 1 -21.341 21.342zm0-67.5c-2.981 5.185-20.342 35.826-20.342 46.158a20.342 20.342 0 0 0 40.684 0c0-10.333-17.361-40.973-20.342-46.158z" fill="#323c6b"/><path d="m32.652 62a20.839 20.839 0 0 0 20.841-20.842c0-3.107-1.524-7.977-3.741-13.424 4.178 8.784 7.741 17.665 7.741 22.424a20.833 20.833 0 0 1 -41.335 3.71 20.785 20.785 0 0 0 16.494 8.132z" fill="#acc6cc"/><g fill="#323c6b"><path d="m37 65.5a.5.5 0 0 1 0-1 14.391 14.391 0 0 0 2.85-.285.5.5 0 1 1 .2.98 15.423 15.423 0 0 1 -3.05.305z"/><path d="m43.584 63.958a.5.5 0 0 1 -.223-.948q.565-.281 1.1-.608a.5.5 0 0 1 .521.854q-.572.349-1.176.65a.5.5 0 0 1 -.222.052z"/><path d="m44.722 63.329a.5.5 0 0 1 -.261-.927 14.262 14.262 0 0 0 6.881-12.244.5.5 0 0 1 1 0 15.256 15.256 0 0 1 -7.359 13.1.5.5 0 0 1 -.261.071z"/><path d="m37 71.5a21.366 21.366 0 0 1 -21.342-21.342c0-11.516 20.056-45.95 20.91-47.411a.52.52 0 0 1 .863 0c.854 1.46 20.91 35.9 20.91 47.411a21.366 21.366 0 0 1 -21.341 21.342zm0-67.5c-2.981 5.185-20.342 35.826-20.342 46.158a20.342 20.342 0 0 0 40.684 0c0-10.333-17.361-40.973-20.342-46.158z"/></g><path d="m21.049 41.252 4.767-11.429a1.136 1.136 0 0 1 1.423-.723 1.136 1.136 0 0 1 .487 1.52l-4.767 11.428a1.136 1.136 0 0 1 -1.423.723 1.136 1.136 0 0 1 -.487-1.519z" fill="#eeefee"/><path d="m27.459 25.882.25-.6a1.136 1.136 0 0 1 1.423-.723 1.136 1.136 0 0 1 .487 1.52l-.25.6a1.136 1.136 0 0 1 -1.423.723 1.136 1.136 0 0 1 -.487-1.52z" fill="#eeefee"/></g></svg>