<svg height="512" viewBox="0 0 74 74" width="512" xmlns="http://www.w3.org/2000/svg"><g id="line_color" data-name="line color"><path d="m3 42.807c4.25 0 4.25 4 8.5 4 3.24 0 4-2.34 6.08-3.43a4.876 4.876 0 0 1 2.41-.57c4.25 0 4.25 4 8.5 4s4.25-4 8.5-4 4.25 4 8.5 4 4.25-4 8.5-4a4.926 4.926 0 0 1 2.43.58c2.06 1.1 2.83 3.42 6.07 3.42 4.26 0 4.26-4 8.51-4v19.706c-4.253 0-4.253 4-8.505 4s-4.253-4-8.505-4-4.25 4-8.5 4-4.251-4-8.5-4-4.249 4-8.5 4-4.248-4-8.5-4-4.248 4-8.5 4-4.248-4-8.5-4z" fill="#b6d2dd"/><path d="m62.49 46.807c-3.24 0-4.01-2.32-6.07-3.42a4.926 4.926 0 0 0 -2.43-.58c-4.25 0-4.25 4-8.5 4s-4.25-4-8.5-4-4.25 4-8.5 4-4.25-4-8.5-4a4.876 4.876 0 0 0 -2.41.57c-2.08 1.09-2.84 3.43-6.08 3.43-4.25 0-4.25-4-8.5-4v5c4.25 0 4.25 4 8.5 4 3.24 0 4-2.34 6.08-3.43a4.876 4.876 0 0 1 2.41-.57c4.25 0 4.25 4 8.5 4s4.25-4 8.5-4 4.25 4 8.5 4 4.25-4 8.5-4a4.926 4.926 0 0 1 2.43.58c2.06 1.1 2.83 3.42 6.07 3.42 4.26 0 4.26-4 8.51-4v-5c-4.25 0-4.25 4-8.51 4z" fill="#acc6cc"/><path d="m62.49 56.658c-3.24 0-4.01-2.32-6.07-3.42a4.926 4.926 0 0 0 -2.43-.58c-4.25 0-4.25 4-8.5 4s-4.25-4-8.5-4-4.25 4-8.5 4-4.25-4-8.5-4a4.876 4.876 0 0 0 -2.41.57c-2.08 1.09-2.84 3.43-6.08 3.43-4.25 0-4.25-4-8.5-4v5c4.25 0 4.25 4 8.5 4 3.24 0 4-2.34 6.08-3.43a4.876 4.876 0 0 1 2.41-.57c4.25 0 4.25 4 8.5 4s4.25-4 8.5-4 4.25 4 8.5 4 4.25-4 8.5-4a4.926 4.926 0 0 1 2.43.58c2.06 1.1 2.83 3.42 6.07 3.42 4.26 0 4.26-4 8.51-4v-5c-4.25 0-4.25 4-8.51 4z" fill="#acc6cc"/><g fill="#323c6b"><path d="m28.49 44.307c-1.09 0-1.538-.381-2.537-1.32a10.814 10.814 0 0 0 -2.425-1.847.5.5 0 1 1 .463-.886 11.787 11.787 0 0 1 2.647 2c.961.9 1.165 1.048 1.852 1.048a.5.5 0 1 1 0 1z"/><path d="m21.646 40.46a.518.518 0 0 1 -.095-.009c-.146-.028-.3-.053-.449-.073a.5.5 0 0 1 -.432-.561.508.508 0 0 1 .561-.431c.175.022.344.051.508.082a.5.5 0 0 1 -.093.991z"/><path d="m62.49 47.307a6.151 6.151 0 0 1 -4.59-2.132 8.149 8.149 0 0 0 -1.714-1.347 4.451 4.451 0 0 0 -2.194-.521 5.185 5.185 0 0 0 -3.907 1.864 6.006 6.006 0 0 1 -9.186 0 5.027 5.027 0 0 0 -7.814 0 6.006 6.006 0 0 1 -9.186 0 5.185 5.185 0 0 0 -3.907-1.864 4.413 4.413 0 0 0 -2.17.508 8 8 0 0 0 -1.748 1.366 6.128 6.128 0 0 1 -4.574 2.126 6.152 6.152 0 0 1 -4.593-2.136 5.185 5.185 0 0 0 -3.907-1.864.5.5 0 0 1 0-1 6.152 6.152 0 0 1 4.593 2.136 5.185 5.185 0 0 0 3.907 1.864 5.162 5.162 0 0 0 3.887-1.854 8.939 8.939 0 0 1 1.961-1.519 5.378 5.378 0 0 1 2.643-.627 6.152 6.152 0 0 1 4.593 2.136 5.027 5.027 0 0 0 7.814 0 6.006 6.006 0 0 1 9.186 0 5.027 5.027 0 0 0 7.814 0 6.152 6.152 0 0 1 4.593-2.136 5.422 5.422 0 0 1 2.67.642 9.042 9.042 0 0 1 1.924 1.5 5.039 5.039 0 0 0 7.824-.006 6.153 6.153 0 0 1 4.591-2.136.5.5 0 0 1 0 1 5.19 5.19 0 0 0 -3.907 1.863 6.167 6.167 0 0 1 -4.603 2.137z"/><path d="m62.5 70.013a9.01 9.01 0 0 1 -6.651-2.951.5.5 0 1 1 .686-.729 8.133 8.133 0 0 0 5.965 2.68 8.673 8.673 0 0 0 1.039-.062.5.5 0 1 1 .121.992 9.567 9.567 0 0 1 -1.16.07z"/><path d="m65.915 69.3a.5.5 0 0 1 -.208-.955c.153-.07.3-.145.442-.222a.5.5 0 1 1 .479.878c-.162.088-.33.173-.5.253a.5.5 0 0 1 -.213.046z"/><path d="m62.5 67.013a6.157 6.157 0 0 1 -4.6-2.136 5.029 5.029 0 0 0 -7.816 0 6.006 6.006 0 0 1 -9.186 0 5.028 5.028 0 0 0 -7.815 0 6 6 0 0 1 -9.184 0 5.023 5.023 0 0 0 -7.811 0 6.149 6.149 0 0 1 -4.588 2.136 6.148 6.148 0 0 1 -4.592-2.136 5.183 5.183 0 0 0 -3.908-1.864.5.5 0 0 1 0-1 6.149 6.149 0 0 1 4.591 2.136 5.184 5.184 0 0 0 3.909 1.864 5.18 5.18 0 0 0 3.9-1.864 6 6 0 0 1 9.182 0 5.025 5.025 0 0 0 7.812 0 6.007 6.007 0 0 1 9.187 0 5.027 5.027 0 0 0 7.814 0 6.008 6.008 0 0 1 9.188 0 5.032 5.032 0 0 0 7.819 0 6.157 6.157 0 0 1 4.598-2.136.5.5 0 0 1 0 1 5.189 5.189 0 0 0 -3.91 1.864 6.156 6.156 0 0 1 -4.59 2.136z"/><path d="m58.756 34.13a4.622 4.622 0 0 1 -4.617-4.617.5.5 0 0 1 1 0 3.617 3.617 0 1 0 3.617-3.613.5.5 0 0 1 0-1 4.617 4.617 0 0 1 0 9.233z"/><path d="m28.325 25.9h-2.274a.5.5 0 0 1 0-1h2.274a.5.5 0 0 1 0 1z"/><path d="m58.756 25.9h-25.248a.5.5 0 0 1 0-1h25.248a.5.5 0 0 1 0 1z"/><path d="m44.974 40.255a4.622 4.622 0 0 1 -4.616-4.617.5.5 0 0 1 1 0 3.617 3.617 0 1 0 3.616-3.617.5.5 0 0 1 0-1 4.617 4.617 0 1 1 0 9.234z"/><path d="m44.974 32.021h-24.884a.5.5 0 0 1 0-1h24.884a.5.5 0 1 1 0 1z"/><path d="m22.726 13.847v-1h25.3a3.617 3.617 0 1 0 -3.616-3.617.5.5 0 1 1 -1 0 4.617 4.617 0 1 1 4.616 4.617z"/><path d="m70.138 20.208h-2.75a.5.5 0 0 1 0-1h2.75a.5.5 0 0 1 0 1z"/><path d="m61.638 20.208h-43.5a.5.5 0 1 1 0-1h43.5a.5.5 0 0 1 0 1z"/><path d="m62.5 57.159a6.157 6.157 0 0 1 -4.6-2.136 5.029 5.029 0 0 0 -7.816 0 6.006 6.006 0 0 1 -9.186 0 5.028 5.028 0 0 0 -7.815 0 6 6 0 0 1 -9.184 0 5.023 5.023 0 0 0 -7.811 0 6.149 6.149 0 0 1 -4.588 2.136 6.148 6.148 0 0 1 -4.592-2.136 5.183 5.183 0 0 0 -3.908-1.864.5.5 0 0 1 0-1 6.149 6.149 0 0 1 4.591 2.136 5.184 5.184 0 0 0 3.909 1.864 5.18 5.18 0 0 0 3.9-1.865 6 6 0 0 1 9.182 0 5.025 5.025 0 0 0 7.812 0 6.007 6.007 0 0 1 9.187 0 5.027 5.027 0 0 0 7.814 0 6.008 6.008 0 0 1 9.188 0 5.032 5.032 0 0 0 7.819 0 6.157 6.157 0 0 1 4.598-2.135.5.5 0 0 1 0 1 5.189 5.189 0 0 0 -3.91 1.864 6.156 6.156 0 0 1 -4.59 2.136z"/></g></g></svg>